<svg id="Capa_1" data-name="Capa 1" xmlns="http://www.w3.org/2000/svg" viewBox="0 0 120.72 34.65"><defs><style>.cls-1,.cls-2{fill:#ccc;}.cls-2{fill-rule:evenodd;}</style></defs><polygon class="cls-1" points="59.94 19.86 55.83 19.86 54.66 10.76 50.84 19.86 49.21 19.86 45.56 10.76 44.22 19.86 40.12 19.86 42.81 4.06 46.87 4.06 50.07 12.49 53.45 4.06 57.55 4.06 59.94 19.86"/><path class="cls-1" d="M77.56,19.86H73.17l-1-2.75H66.48l-1.09,2.75H61.05l6.08-15.8h4.48ZM71,14l-1.7-5-1.73,5Z"/><polygon class="cls-1" points="94.14 19.86 88.83 19.86 83.49 13.01 83.49 19.86 79.38 19.86 79.38 4.06 83.49 4.06 83.49 10.57 88.5 4.06 93.57 4.06 87.3 11.54 94.14 19.86"/><polygon class="cls-1" points="104.97 19.86 95.97 19.86 95.97 4.06 104.97 4.06 104.97 7.48 100.09 7.48 100.09 10.18 104.71 10.18 104.71 13.61 100.09 13.61 100.09 16.43 104.97 16.43 104.97 19.86"/><path class="cls-1" d="M120.72,19.86h-5.11l-3.92-6.07v6.07h-4.11V4.06H114a5,5,0,0,1,4.15,1.67,5,5,0,0,1,1.08,3.19A4.51,4.51,0,0,1,118,12.27a4.37,4.37,0,0,1-2.2,1.11ZM114.94,9.15a1.88,1.88,0,0,0-.61-1.43,2.7,2.7,0,0,0-1.87-.54h-.77v3.94h.77a2.68,2.68,0,0,0,1.87-.54,1.91,1.91,0,0,0,.61-1.43"/><path class="cls-1" d="M52.24,24.52l-.81.63a4.45,4.45,0,0,0-1.63-1.34,4.77,4.77,0,0,0-2.08-.46,4.59,4.59,0,0,0-2.3.6,4.35,4.35,0,0,0-1.64,1.6,4.4,4.4,0,0,0-.58,2.26A4.22,4.22,0,0,0,44.5,31a4.49,4.49,0,0,0,3.28,1.27,4.65,4.65,0,0,0,3.65-1.7l.81.62a5.15,5.15,0,0,1-1.93,1.52,6.06,6.06,0,0,1-2.59.54,5.35,5.35,0,0,1-4.29-1.81,5.46,5.46,0,0,1-1.32-3.69,5.13,5.13,0,0,1,1.59-3.83,5.51,5.51,0,0,1,4-1.56,5.81,5.81,0,0,1,2.63.58,5,5,0,0,1,1.91,1.61"/><path class="cls-1" d="M59.26,22.33a5.43,5.43,0,0,1,4,1.57,5.53,5.53,0,0,1,0,7.74,5.24,5.24,0,0,1-3.86,1.58,5.29,5.29,0,0,1-3.9-1.58,5.16,5.16,0,0,1-1.58-3.82,5.56,5.56,0,0,1,.72-2.77,5.32,5.32,0,0,1,4.67-2.72m.05,1a4.42,4.42,0,0,0-3.79,2.22,4.42,4.42,0,0,0-.58,2.26,4.37,4.37,0,0,0,4.37,4.4,4.43,4.43,0,0,0,2.23-.59A4.19,4.19,0,0,0,63.15,30a4.54,4.54,0,0,0,.57-2.26,4.41,4.41,0,0,0-4.41-4.43"/><polygon class="cls-1" points="66.4 32.96 67.88 22.59 68.05 22.59 72.27 31.1 76.44 22.59 76.61 22.59 78.1 32.96 77.09 32.96 76.06 25.55 72.39 32.96 72.13 32.96 68.42 25.49 67.4 32.96 66.4 32.96"/><path class="cls-1" d="M80.2,22.59h2.07a11.4,11.4,0,0,1,2.4.16,2.61,2.61,0,0,1,1.45.9,2.55,2.55,0,0,1,.56,1.71,2.6,2.6,0,0,1-.55,1.71,2.69,2.69,0,0,1-1.51.9,13.63,13.63,0,0,1-2.64.17h-.74V33h-1Zm1,1v3.52l1.76,0a4.44,4.44,0,0,0,1.55-.2,1.6,1.6,0,0,0,.78-.62,1.72,1.72,0,0,0,.28-1,1.66,1.66,0,0,0-.28-.95,1.58,1.58,0,0,0-.74-.62,4.61,4.61,0,0,0-1.52-.18Z"/><path class="cls-1" d="M88.79,22.59h1v6.26a12.6,12.6,0,0,0,0,1.39,2.29,2.29,0,0,0,.36,1,2.22,2.22,0,0,0,.87.69,2.79,2.79,0,0,0,1.17.28,2.39,2.39,0,0,0,1-.22,2.27,2.27,0,0,0,.79-.61,2.52,2.52,0,0,0,.47-.94,7.88,7.88,0,0,0,.1-1.62V22.59h1v6.26a7.67,7.67,0,0,1-.27,2.25,3.16,3.16,0,0,1-3.06,2.12,3.77,3.77,0,0,1-2.15-.6A2.85,2.85,0,0,1,89,31a8.3,8.3,0,0,1-.19-2.19Z"/><polygon class="cls-1" points="97.18 23.61 97.18 22.59 102.86 22.59 102.86 23.61 100.55 23.61 100.55 32.96 99.49 32.96 99.49 23.61 97.18 23.61"/><polygon class="cls-1" points="104.36 22.59 110.31 22.59 110.31 23.61 105.4 23.61 105.4 26.86 110.26 26.86 110.26 27.87 105.4 27.87 105.4 31.95 110.26 31.95 110.26 32.96 104.36 32.96 104.36 22.59"/><path class="cls-1" d="M112.15,22.59h2.07a12.94,12.94,0,0,1,2.34.14,2.78,2.78,0,0,1,1.5.91,2.55,2.55,0,0,1,.58,1.71,2.72,2.72,0,0,1-.4,1.49,2.47,2.47,0,0,1-1.14,1,5.26,5.26,0,0,1-2,.34L118.79,33H117.5l-3.73-4.81h-.58V33h-1Zm1,1v3.52l1.79,0a4.43,4.43,0,0,0,1.53-.2,1.62,1.62,0,0,0,.78-.63,1.8,1.8,0,0,0,.28-1,1.69,1.69,0,0,0-.29-1,1.53,1.53,0,0,0-.74-.61,4.53,4.53,0,0,0-1.52-.18Z"/><path class="cls-2" d="M17.23,0C11.32,6,5.12,12.16,0,17.29l3.77,3.77L15,9.87a13.11,13.11,0,0,0,3.48,6.34,13.32,13.32,0,0,0,6.37,3.5L13.64,30.88l3.78,3.77L34.64,17.43c-1.22-1.25-2.49-2.51-3.55-3.58A7.72,7.72,0,0,1,20.79,3.56Z"/></svg>